<?xml version="1.0" standalone="no"?>
<!DOCTYPE svg PUBLIC "-//W3C//DTD SVG 20010904//EN"
 "http://www.w3.org/TR/2001/REC-SVG-20010904/DTD/svg10.dtd">
<svg version="1.0" xmlns="http://www.w3.org/2000/svg"
 width="1063.000000pt" height="1063.000000pt" viewBox="0 0 1063.000000 1063.000000"
 preserveAspectRatio="xMidYMid meet">
<metadata>
Created by potrace 1.14, written by Peter Selinger 2001-2017
</metadata>
<g transform="translate(0.000000,1063.000000) scale(0.100000,-0.100000)"
fill="#000000" stroke="none">
<path d="M0 5315 l0 -5315 5315 0 5315 0 0 5315 0 5315 -5315 0 -5315 0 0
-5315z m4485 3170 c182 -38 437 -147 645 -276 l85 -53 -45 -8 c-813 -149
-1357 -602 -1531 -1275 -42 -165 -53 -277 -46 -493 7 -202 27 -323 85 -496 75
-225 152 -346 411 -654 144 -170 213 -270 287 -417 151 -296 245 -790 244
-1278 l-1 -140 -19 53 c-28 77 -63 133 -128 203 -82 89 -171 153 -297 214
-317 155 -721 209 -1110 150 -128 -20 -212 -11 -301 31 -99 47 -174 160 -174
263 0 21 18 85 40 143 70 186 63 278 -28 380 -75 83 -92 109 -92 138 0 54 67
87 228 115 133 23 183 36 233 61 83 41 73 50 -69 57 -208 10 -359 48 -422 107
-41 38 -39 72 6 123 41 44 88 140 103 205 l9 44 -45 26 c-120 71 -286 187
-343 240 -58 53 -64 62 -63 96 2 73 54 137 354 437 157 157 295 298 305 314
15 23 21 63 30 214 7 102 19 227 28 276 121 660 615 1116 1321 1219 56 8 220
-2 300 -19z m2000 11 c454 -70 823 -297 1057 -651 166 -250 234 -484 254 -875
4 -87 12 -145 21 -164 8 -16 146 -160 307 -320 305 -305 357 -369 359 -442 1
-33 -5 -43 -60 -94 -56 -51 -230 -173 -346 -242 l-45 -26 9 -44 c15 -65 62
-161 103 -205 45 -51 47 -85 6 -123 -63 -59 -208 -95 -423 -106 -138 -8 -148
-13 -81 -51 48 -28 90 -40 223 -64 272 -48 306 -93 177 -236 -110 -122 -120
-205 -49 -391 50 -128 52 -201 8 -281 -53 -96 -137 -151 -263 -172 -54 -9 -88
-8 -177 6 -521 79 -1092 -55 -1368 -322 -97 -93 -165 -205 -183 -297 -3 -20
-8 -35 -10 -33 -8 7 17 498 32 632 29 263 87 513 163 699 81 197 183 355 370
571 266 307 385 539 447 870 29 153 27 511 -4 652 -151 696 -677 1179 -1457
1340 l-139 29 93 58 c297 184 597 291 826 295 33 0 101 -6 150 -13z m-1706
-1741 c129 -31 226 -110 281 -228 41 -88 50 -161 50 -418 l0 -226 61 -7 c79
-8 209 -8 287 0 l60 7 4 266 c4 245 6 271 27 330 55 157 168 253 332 282 190
34 391 -68 472 -238 30 -64 32 -74 32 -183 0 -95 -4 -125 -23 -170 -74 -186
-294 -313 -632 -367 l-110 -17 0 -1263 0 -1263 195 0 195 0 0 -130 0 -130
-695 0 -695 0 0 130 0 130 195 0 195 0 0 1263 0 1263 -110 17 c-335 53 -543
172 -628 357 -37 81 -43 230 -12 319 48 143 155 238 308 275 76 19 133 19 211
1z m1231 -4055 l0 -130 -65 0 c-54 0 -67 -3 -71 -17 -72 -230 -236 -379 -463
-421 -280 -51 -560 121 -650 401 l-13 37 -64 0 -64 0 0 130 0 130 695 0 695 0
0 -130z"/>
<path d="M4580 6655 c-153 -43 -241 -160 -241 -319 0 -153 77 -260 248 -341
98 -47 322 -105 406 -105 18 0 19 13 15 258 -4 241 -5 261 -28 317 -30 78
-106 155 -175 179 -72 24 -160 29 -225 11z"/>
<path d="M5880 6661 c-102 -20 -191 -96 -231 -197 -22 -56 -24 -74 -27 -316
-3 -244 -3 -258 15 -258 33 0 184 29 261 50 166 46 310 144 362 246 35 69 40
196 11 274 -56 147 -224 234 -391 201z"/>
<path d="M5110 4518 l0 -1258 205 0 205 0 0 1258 0 1257 -205 0 -205 0 0
-1257z"/>
</g>
</svg>
